<svg id="Layer_1" data-name="Layer 1" xmlns="http://www.w3.org/2000/svg" viewBox="0 0 133.88 227.99"><defs><style>.cls-1{fill:#ccc;}.cls-1,.cls-2,.cls-3,.cls-4{fill-rule:evenodd;}.cls-2{fill:#331200;}.cls-3{fill:#80420d;}.cls-4{fill:#ad7529;}</style></defs><path class="cls-1" d="M78,221.46c19.83,0,35.9,2.58,35.9,5.77S97.83,233,78,233s-35.9-2.58-35.9-5.76,16.07-5.77,35.9-5.77Z" transform="translate(-11.06 -5.01)"/><path class="cls-2" d="M85.46,71.17l.92.15A40.83,40.83,0,0,0,90.5,62.6c-1.46,2.6-3,5.15-4.5,7.65Zm16.41-14.7A67,67,0,0,1,144.94,119c0,30.73-23.54,53.26-41.3,75.75L78,227.23,52.36,194.77c-17.76-22.49-41.3-45-41.3-75.75A67,67,0,0,1,64.12,53.53L70.55,59a115.73,115.73,0,0,0-7.32,13.9,48.43,48.43,0,1,0,49.88,79.47H114c7.87,0,15.94-2.37,21.12-8.61a18,18,0,0,0,3.4-17.65,16.61,16.61,0,0,0-12.23-10.41,48.45,48.45,0,0,0-26.67-40c.11-.27.21-.55.32-.83A40,40,0,0,0,101.87,56.47Z" transform="translate(-11.06 -5.01)"/><path class="cls-3" d="M115.18,142.92a44,44,0,0,0,6.95-18.35c12.45.92,10.64,17.66-6.95,18.35ZM75.12,153.55a1.6,1.6,0,0,1-.28,3.19A38.32,38.32,0,0,1,49.79,144.2a21,21,0,0,1-3.49-4.49A1.61,1.61,0,0,1,49,137.93a21,21,0,0,0,3.2,4.12A35.06,35.06,0,0,0,75.12,153.55Zm-41-35.07a44.21,44.21,0,0,0,23.74,39.21h0a44.22,44.22,0,0,0,24.5,4.84h0a44.17,44.17,0,0,0,28.84-14.44H114c25.75,0,27.48-27.24,8.51-28.65v-1a3.21,3.21,0,0,0-3.21-3.21h-82A3.21,3.21,0,0,0,34.1,118.48Z" transform="translate(-11.06 -5.01)"/><path class="cls-4" d="M71.11,53C89.18,35.19,73.09,26.57,82.77,5c-14.28,13.23.38,30.12-11.66,48ZM85.43,15.78c15.77,34.79-41.65,58.85-12.49,94.63C57.16,75.73,114.59,51.56,85.43,15.78ZM96.82,56.32c3,25.17-14.46,28-17.7,46.88C74.1,87.12,95.08,77.77,96.82,56.32Z" transform="translate(-11.06 -5.01)"/></svg>